<svg width="20" height="20" viewBox="0 0 20 20" fill="none" xmlns="http://www.w3.org/2000/svg">
<path fill-rule="evenodd" clip-rule="evenodd" d="M7.01442 2.70833C7.24775 2.21667 7.75108 1.875 8.33275 1.875H11.6661C12.2478 1.875 12.7502 2.21667 12.9844 2.70833C13.5536 2.71333 13.9978 2.73917 14.3944 2.89417C14.8679 3.07939 15.2798 3.39418 15.5828 3.8025C15.8886 4.21417 16.0328 4.74167 16.2294 5.4675L16.8478 7.73583L17.0811 8.43667L17.1011 8.46167C17.8519 9.42333 17.4944 10.8533 16.7794 13.7125C16.3244 15.5317 16.0978 16.4408 15.4194 16.9708C14.7411 17.5 13.8036 17.5 11.9286 17.5H8.07025C6.19525 17.5 5.25775 17.5 4.57942 16.9708C3.90108 16.4408 3.67358 15.5317 3.21942 13.7125C2.50442 10.8533 2.14692 9.42333 2.89775 8.46167L2.91775 8.43667L3.15108 7.73583L3.76942 5.4675C3.96692 4.74167 4.11108 4.21333 4.41608 3.80167C4.71919 3.39365 5.131 3.07916 5.60442 2.89417C6.00108 2.73917 6.44442 2.7125 7.01442 2.70833ZM7.01608 3.96C6.46442 3.96583 6.24275 3.98667 6.05942 4.05833C5.80439 4.15807 5.58259 4.32759 5.41942 4.5475C5.27275 4.745 5.18608 5.02083 4.94442 5.91L4.46942 7.65083C5.31942 7.5 6.48108 7.5 8.06942 7.5H11.9286C13.5177 7.5 14.6786 7.5 15.5286 7.65L15.0544 5.90917C14.8128 5.02 14.7261 4.74417 14.5794 4.54667C14.4162 4.32676 14.1944 4.15723 13.9394 4.0575C13.7561 3.98583 13.5344 3.965 12.9828 3.95917C12.8644 4.20821 12.6779 4.4186 12.4449 4.56595C12.2118 4.7133 11.9418 4.79156 11.6661 4.79167H8.33275C8.05712 4.79164 7.78714 4.7135 7.55411 4.5663C7.32107 4.41911 7.13453 4.20888 7.01608 3.96Z" fill="white"/>
</svg>
