<svg width="40" height="40" viewBox="0 0 40 40" fill="none" xmlns="http://www.w3.org/2000/svg">
<g clip-path="url(#clip0_1_7321)">
<path d="M5.99938 7.21773C6.91469 6.30242 8.39867 6.30242 9.31391 7.21773L16.8535 14.818V21.3545L5.99938 10.5323C5.08406 9.61703 5.08406 8.13305 5.99938 7.21773Z" fill="#BB464E"/>
<path d="M13.8326 1.29528C15.0829 0.960281 16.368 1.70223 16.703 2.95255L18.5879 10.0179L16.2295 19.3033L12.1752 4.16575C11.8403 2.91544 12.5823 1.63028 13.8326 1.29528Z" fill="#FFB0B3"/>
<path d="M27.1929 25.8594L23.398 40H10.4552L20.7082 1.73773C21.0432 0.487417 22.3283 -0.254614 23.5786 0.0804642C24.8289 0.415464 25.5709 1.70062 25.2359 2.95093L21.5371 16.8499L21.5374 16.8505C22.3938 13.9333 25.0945 11.7969 28.2851 11.7969C30.7869 11.7969 33.12 13.1431 34.3739 15.3102C35.0222 16.4305 34.6394 17.8643 33.5191 18.5126C32.3988 19.1609 30.965 18.7781 30.3167 17.6577C29.8979 16.934 29.1195 16.4844 28.2852 16.4844C26.9929 16.4844 25.9414 17.5358 25.9414 18.8281C25.9414 20.1205 26.9929 21.1719 28.2852 21.1719C29.1195 21.1719 29.8979 20.7223 30.3167 19.9985C30.965 18.8781 32.3989 18.4954 33.5191 19.1437C34.6395 19.7919 35.0222 21.2257 34.3739 22.3461C33.12 24.5132 30.7869 25.8594 28.2851 25.8594H27.1929Z" fill="white"/>
<path d="M20.7082 1.73773C21.0432 0.487417 22.3283 -0.254614 23.5786 0.0804642C24.8289 0.415464 25.5709 1.70062 25.2359 2.95093L15.331 40H10.4553L20.7082 1.73773Z" fill="#FFBDBC"/>
</g>
<defs>
<clipPath id="clip0_1_7321">
<rect width="40" height="40" fill="white" transform="matrix(-1 0 0 1 40 0)"/>
</clipPath>
</defs>
</svg>
