<svg width="16" height="16" viewBox="0 0 16 16" fill="none" xmlns="http://www.w3.org/2000/svg">
<g opacity="0.8" clip-path="url(#clip0_1_7297)">
<path d="M6.33333 0C9.83114 0 12.6667 2.83553 12.6667 6.33333C12.6667 7.72129 12.2202 9.00497 11.463 10.0486L15.7071 14.2929C16.0976 14.6834 16.0976 15.3166 15.7071 15.7071C15.341 16.0732 14.7616 16.0961 14.3688 15.7758L14.2929 15.7071L10.0486 11.463C9.00497 12.2202 7.72129 12.6667 6.33333 12.6667C2.83553 12.6667 0 9.83114 0 6.33333C0 2.83553 2.83553 0 6.33333 0ZM6.33333 2C3.9401 2 2 3.9401 2 6.33333C2 8.72657 3.9401 10.6667 6.33333 10.6667C8.72657 10.6667 10.6667 8.72657 10.6667 6.33333C10.6667 3.9401 8.72657 2 6.33333 2Z" fill="white"/>
</g>
<defs>
<clipPath id="clip0_1_7297">
<rect width="16" height="16" fill="white"/>
</clipPath>
</defs>
</svg>
